<?xml version="1.0" encoding="utf-8"?>
<!-- Generator: Adobe Illustrator 24.0.1, SVG Export Plug-In . SVG Version: 6.00 Build 0)  -->
<svg version="1.1" id="Слой_1" xmlns="http://www.w3.org/2000/svg" xmlns:xlink="http://www.w3.org/1999/xlink" x="0px" y="0px"
	 viewBox="0 0 407.7 214.2" style="enable-background:new 0 0 407.7 214.2;" xml:space="preserve">
<style type="text/css">
	.st0{fill:none;}
	.st1{fill:url(#SVGID_1_);}
	.st2{fill:#F9892F;}
	.st3{fill:url(#SVGID_2_);}
	.st4{fill:url(#SVGID_3_);}
	.st5{fill:url(#SVGID_4_);}
	.st6{fill:url(#SVGID_5_);}
</style>
<g>
	<path class="st0" d="M248.8,146.6c-8.1,0-14.7,6.6-14.7,14.7s6.6,14.7,14.7,14.7l0,0c8.1,0,14.7-6.6,14.7-14.7l0,0
		C263.4,153.2,256.9,146.6,248.8,146.6z M248.8,172c-5.8,0-10.5-4.7-10.5-10.5S243,151,248.8,151s10.5,4.7,10.5,10.5
		S254.6,172,248.8,172z"/>
	<path class="st0" d="M97.1,176L97.1,176c8,0,14.5-6.5,14.5-14.5l0,0c0-8-6.5-14.5-14.6-14.5c-8,0-14.5,6.5-14.5,14.6
		C82.5,169.5,89,176,97.1,176z M97.2,151.1c5.7,0,10.3,4.6,10.3,10.3s-4.6,10.3-10.3,10.3s-10.3-4.6-10.3-10.3
		S91.5,151.1,97.2,151.1z"/>
	<path class="st0" d="M309.9,146.7c-8,0-14.5,6.5-14.5,14.5s6.5,14.5,14.5,14.5l0,0l0,0c8,0,14.5-6.5,14.5-14.5
		S317.9,146.7,309.9,146.7z M310,172c-5.8,0-10.5-4.7-10.5-10.5S304.2,151,310,151s10.5,4.7,10.5,10.5S315.7,172,310,172z"/>
	<path class="st0" d="M186.4,146.6c-8.1,0-14.7,6.5-14.7,14.6s6.5,14.7,14.6,14.7h0.1c8.1,0,14.6-6.6,14.6-14.7
		C201,153.2,194.4,146.7,186.4,146.6z M186.3,172c-5.8,0-10.5-4.7-10.5-10.5s4.7-10.5,10.5-10.5s10.5,4.7,10.5,10.5
		S192.1,172,186.3,172z"/>
	<circle cx="97.2" cy="161.3" r="10.3"/>
	
		<linearGradient id="SVGID_1_" gradientUnits="userSpaceOnUse" x1="184.248" y1="659.86" x2="183.4281" y2="721.35" gradientTransform="matrix(1 0 0 1 0 -533.8898)">
		<stop  offset="0" style="stop-color:#543325"/>
		<stop  offset="0.48" style="stop-color:#2A1912"/>
		<stop  offset="1" style="stop-color:#000000"/>
	</linearGradient>
	<path class="st1" d="M212.6,143.1c-5.9-8.6-15.7-13.7-26.2-13.7c-10.4,0-20.2,5.1-26.1,13.7v-36.3h-10.2c0,0,0,11,0,25.1
		c5.4,8.6,8.6,18.7,8.6,29.6c0,11.1-3,21.8-8.4,30.7c0,0.1,0,0.1,0,0.1h9.9v-13.1c10,14.4,29.7,18.1,44.2,8.1
		C218.9,177.3,222.5,157.6,212.6,143.1z M186.4,176h-0.1c-8.1,0-14.7-6.6-14.6-14.7s6.6-14.7,14.7-14.6c8.1,0,14.6,6.6,14.6,14.6
		C201,169.4,194.5,176,186.4,176z"/>
	<g>
		<path class="st2" d="M128.7,161.3c0-17.4-14.1-31.5-31.5-31.5c-12.9,0-23.9,7.7-28.8,18.8l5.5,33.8c5.8,6.4,14,10.4,23.3,10.4
			C114.6,192.8,128.7,178.7,128.7,161.3z M97.1,175.9c-8,0-14.6-6.5-14.6-14.5S89,146.9,97,146.9s14.6,6.5,14.6,14.5
			S105.1,175.9,97.1,175.9z"/>
		<path class="st2" d="M153.5,161.5c0-11-3.2-21-8.5-29.6v-0.1c-9.7-15.5-27.1-25.8-46.8-25.8c-12.7,0-25,4.4-34.8,12.3l0.2,1.5
			l3.5,21.5c11-17.1,33.8-22,50.9-11s22,33.8,11,50.9c-3.5,5.4-8.3,9.8-14,12.8l-0.2,20.2c13.1-2.5,23.6-10.8,30.4-22v-0.1
			C150.6,183.2,153.5,172.6,153.5,161.5z"/>
	</g>
	
		<linearGradient id="SVGID_2_" gradientUnits="userSpaceOnUse" x1="246.7255" y1="659.86" x2="245.9055" y2="721.3499" gradientTransform="matrix(1 0 0 1 0 -533.8898)">
		<stop  offset="0" style="stop-color:#543325"/>
		<stop  offset="0.48" style="stop-color:#2A1912"/>
		<stop  offset="1" style="stop-color:#000000"/>
	</linearGradient>
	<path class="st3" d="M275,143.1c-5.9-8.6-15.7-13.7-26.1-13.7s-20.2,5.1-26.1,13.7v-36.3h-10.2c0,0,0,12.4,0,30
		c6,5.9,10.2,13.9,10.3,24.8c0.1,8.2-4.6,18.4-10.1,23.4c0,6,0,7.4,0.1,7.4h9.9v-13.1c10,14.4,29.7,18.1,44.2,8.1
		C281.3,177.3,285,157.5,275,143.1z M263.4,161.3c0,8.1-6.6,14.7-14.7,14.7l0,0c-8.1,0-14.7-6.6-14.7-14.7s6.6-14.7,14.7-14.7
		S263.4,153.2,263.4,161.3L263.4,161.3z"/>
	
		<linearGradient id="SVGID_3_" gradientUnits="userSpaceOnUse" x1="311.7" y1="663.4897" x2="311.7" y2="726.4897" gradientTransform="matrix(1 0 0 1 0 -533.8898)">
		<stop  offset="0" style="stop-color:#543325"/>
		<stop  offset="0.48" style="stop-color:#2A1912"/>
		<stop  offset="1" style="stop-color:#000000"/>
	</linearGradient>
	<path class="st4" d="M310,129.6c-11.7,0-22.5,6.5-27.9,17c2.3,4.4,3.1,9.5,3.1,14.8c0,5-1.1,10-3.4,14.4
		c5.6,10.4,16.5,16.8,28.3,16.8c17.4,0,31.5-14.1,31.5-31.5C341.5,143.7,327.4,129.6,310,129.6z M309.9,175.8
		C309.8,175.8,309.8,175.8,309.9,175.8L309.9,175.8c-8,0-14.5-6.5-14.5-14.5s6.5-14.5,14.5-14.5s14.5,6.5,14.5,14.5
		S317.9,175.8,309.9,175.8z"/>
	
		<linearGradient id="SVGID_4_" gradientUnits="userSpaceOnUse" x1="360.2534" y1="674.1201" x2="360.3934" y2="704.0101" gradientTransform="matrix(1 0 0 1 0 -533.8898)">
		<stop  offset="0" style="stop-color:#543325"/>
		<stop  offset="0.25" style="stop-color:#362118"/>
		<stop  offset="0.55" style="stop-color:#190F0B"/>
		<stop  offset="0.81" style="stop-color:#060403"/>
		<stop  offset="1" style="stop-color:#000000"/>
	</linearGradient>
	<path class="st5" d="M375.5,129.5c-14.8-2-21.4,8.6-21.4,8.6v-7.8c0,0-8.5-0.1-8.9,0v61.9H356v-26.9c0-4.8,0.6-12.8,0.6-12.8
		c0.9-4.6,3.5-8.7,7.4-11.4c3.3-2.4,7.3-3.6,11.4-3.5v-8.1L375.5,129.5L375.5,129.5z"/>
	
		<linearGradient id="SVGID_5_" gradientUnits="userSpaceOnUse" x1="365.7957" y1="649.1837" x2="405.0557" y2="667.1737" gradientTransform="matrix(1 0 0 1 0 -533.8898)">
		<stop  offset="0.25" style="stop-color:#543325"/>
		<stop  offset="0.43" style="stop-color:#362118"/>
		<stop  offset="0.66" style="stop-color:#190F0B"/>
		<stop  offset="0.86" style="stop-color:#060403"/>
		<stop  offset="1" style="stop-color:#000000"/>
	</linearGradient>
	<path class="st6" d="M397.2,124c-4.6-4.4-13.4-4.8-15.7-9c-1.6-2.9,1.2-6.9,6.1-7.1c3.3-0.1,9.9,2,10.1,2.5l0.1-9.3
		c0,0-6.4-2.7-12.9-1.5c-10.3,2-12.6,8.3-12.1,16.3s6.2,10.3,9.8,11.4c18.3,5.9,8.2,13.2,5.8,13.9c-6.6,1.9-12.9-1.8-12.9-1.8v9.2
		c0,0,11.8,3.8,20-1.3S404.8,131.3,397.2,124z"/>
	<path d="M80,34.7c-1.9-2.4-4.7-3.7-7.7-3.7c-5.5,0-9.9,4.4-9.9,9.9c0,1.4,0.3,2.9,0.9,4.2c-3.1,3.5-5.6,7.5-7.6,11.7
		c-2.3,5.1-4.1,10.3-5.6,15.7c-2.8,11.4-4.2,24.3-3.8,32.8c0.3,6.9,2.4,27.6,2.4,27.6c-10.6,10.3-21.6,4-23.5,2.7l0.7-26
		c0,0,1-23.6,2.8-35.9c0.9-6,5.7-22.7,10-33.2C42.4,32,47.3,24,53.2,16.8c1.6,1.8,3.9,2.9,6.3,3.1c-2.5-1.4-3.5-4.6-2.1-7.1
		s4.6-3.5,7.1-2.1c1.7,0.9,2.7,2.7,2.7,4.6c0,0.9-0.2,1.7-0.6,2.4c4.3-3.4,4.9-9.7,1.5-13.9c-3.4-4.3-9.7-4.9-13.9-1.5
		c-3.7,3-4.8,8.2-2.5,12.4c-6.1,5.1-11.6,11-16.3,17.5C30,39.5,25,49.2,20.3,60.7c-6,14.6-9.9,33.5-11.8,48.1l-10.8,83.6h25.9
		l1.3-43.6c8.1,4,17.7,3.2,25-2l4.1,45.7h16.3l-1.6-9.8c-0.1-0.1-0.1-0.1-0.1-0.2l-5.4-33.9l0,0l-4.7-28.8l-0.2-1.6l-2-12.1
		C55,97,54.6,87.8,55,78.5c0.5-11,5-25,8.8-32.7c1.6,2.7,4.4,4.5,7.5,4.8c-2.5-1.4-3.4-4.6-2-7.1s4.6-3.4,7.1-2
		c1.7,0.9,2.7,2.7,2.7,4.6c0,0.9-0.2,1.7-0.6,2.5C82.8,45.2,83.5,39,80,34.7z"/>
</g>
</svg>
